<svg id="visual" viewBox="0 0 900 900" width="900" height="900" xmlns="http://www.w3.org/2000/svg" xmlns:xlink="http://www.w3.org/1999/xlink" version="1.1"><g transform="translate(424.81155019315474 406.18826359167633)"><path d="M167.5 -249.8C230.1 -220.4 302.9 -196 345.3 -145.3C387.7 -94.6 399.7 -17.7 377.7 46C355.6 109.8 299.5 160.3 250.5 217.4C201.6 274.6 159.8 338.3 98.1 375.1C36.4 411.9 -45.2 421.9 -119 401.8C-192.8 381.7 -258.9 331.7 -284.2 266.4C-309.4 201.1 -293.9 120.5 -303.9 44.3C-313.9 -31.9 -349.3 -103.8 -334.6 -159.8C-320 -215.9 -255.1 -256 -191 -284.7C-126.9 -313.4 -63.4 -330.7 -5.5 -322.2C52.4 -313.6 104.9 -279.2 167.5 -249.8" fill="#ffd218"></path></g></svg>