<svg id="visual" viewBox="0 0 900 900" width="900" height="900" xmlns="http://www.w3.org/2000/svg" xmlns:xlink="http://www.w3.org/1999/xlink" version="1.1"><g transform="translate(475.7185590015408 406.660252610519)"><path d="M171.1 -265.3C214.6 -238.3 237.8 -178.8 264 -120.8C290.2 -62.8 319.3 -6.3 332.5 62.6C345.6 131.6 342.9 213.2 304.8 272.9C266.7 332.7 193.4 370.7 118.5 383.7C43.6 396.6 -32.9 384.4 -109.4 365.3C-186 346.2 -262.7 320.1 -316.2 268.4C-369.7 216.7 -400.2 139.3 -388.6 69.7C-377.1 0.1 -323.6 -61.6 -287.3 -127C-250.9 -192.5 -231.7 -261.5 -186.7 -287.8C-141.6 -314.2 -70.8 -297.7 -3.5 -292.2C63.8 -286.8 127.6 -292.3 171.1 -265.3" fill="#ffd218"></path></g></svg>