<svg id="visual" viewBox="0 0 900 200" width="900" height="200" xmlns="http://www.w3.org/2000/svg" xmlns:xlink="http://www.w3.org/1999/xlink" version="1.1"><rect x="0" y="0" width="900" height="200" fill="#2c0538"></rect><path d="M0 142L7.8 139.3C15.7 136.7 31.3 131.3 47.2 131.3C63 131.3 79 136.7 94.8 141.3C110.7 146 126.3 150 142 148.5C157.7 147 173.3 140 189.2 136.7C205 133.3 221 133.7 236.8 134.7C252.7 135.7 268.3 137.3 284.2 139.5C300 141.7 316 144.3 331.8 146.3C347.7 148.3 363.3 149.7 379 151.3C394.7 153 410.3 155 426.2 154.2C442 153.3 458 149.7 473.8 149.2C489.7 148.7 505.3 151.3 521 149.3C536.7 147.3 552.3 140.7 568.2 140.3C584 140 600 146 615.8 144.5C631.7 143 647.3 134 663.2 129.2C679 124.3 695 123.7 710.8 126.3C726.7 129 742.3 135 758 138.2C773.7 141.3 789.3 141.7 805.2 138.7C821 135.7 837 129.3 852.8 124.5C868.7 119.7 884.3 116.3 892.2 114.7L900 113L900 0L892.2 0C884.3 0 868.7 0 852.8 0C837 0 821 0 805.2 0C789.3 0 773.7 0 758 0C742.3 0 726.7 0 710.8 0C695 0 679 0 663.2 0C647.3 0 631.7 0 615.8 0C600 0 584 0 568.2 0C552.3 0 536.7 0 521 0C505.3 0 489.7 0 473.8 0C458 0 442 0 426.2 0C410.3 0 394.7 0 379 0C363.3 0 347.7 0 331.8 0C316 0 300 0 284.2 0C268.3 0 252.7 0 236.8 0C221 0 205 0 189.2 0C173.3 0 157.7 0 142 0C126.3 0 110.7 0 94.8 0C79 0 63 0 47.2 0C31.3 0 15.7 0 7.8 0L0 0Z" fill="#2c0538"></path><path d="M0 108L7.8 112.7C15.7 117.3 31.3 126.7 47.2 127.3C63 128 79 120 94.8 116.2C110.7 112.3 126.3 112.7 142 115.3C157.7 118 173.3 123 189.2 121C205 119 221 110 236.8 110.5C252.7 111 268.3 121 284.2 126.5C300 132 316 133 331.8 129.5C347.7 126 363.3 118 379 112.8C394.7 107.7 410.3 105.3 426.2 107.7C442 110 458 117 473.8 116.8C489.7 116.7 505.3 109.3 521 109.5C536.7 109.7 552.3 117.3 568.2 117.7C584 118 600 111 615.8 108.7C631.7 106.3 647.3 108.7 663.2 109.7C679 110.7 695 110.3 710.8 111.7C726.7 113 742.3 116 758 115.8C773.7 115.7 789.3 112.3 805.2 108.7C821 105 837 101 852.8 98.8C868.7 96.7 884.3 96.3 892.2 96.2L900 96L900 0L892.2 0C884.3 0 868.7 0 852.8 0C837 0 821 0 805.2 0C789.3 0 773.7 0 758 0C742.3 0 726.7 0 710.8 0C695 0 679 0 663.2 0C647.3 0 631.7 0 615.8 0C600 0 584 0 568.2 0C552.3 0 536.7 0 521 0C505.3 0 489.7 0 473.8 0C458 0 442 0 426.2 0C410.3 0 394.7 0 379 0C363.3 0 347.7 0 331.8 0C316 0 300 0 284.2 0C268.3 0 252.7 0 236.8 0C221 0 205 0 189.2 0C173.3 0 157.7 0 142 0C126.3 0 110.7 0 94.8 0C79 0 63 0 47.2 0C31.3 0 15.7 0 7.8 0L0 0Z" fill="#43023a"></path><path d="M0 102L7.8 98.8C15.7 95.7 31.3 89.3 47.2 89.3C63 89.3 79 95.7 94.8 96.7C110.7 97.7 126.3 93.3 142 95.3C157.7 97.3 173.3 105.7 189.2 108.5C205 111.3 221 108.7 236.8 109.3C252.7 110 268.3 114 284.2 115.2C300 116.3 316 114.7 331.8 114C347.7 113.3 363.3 113.7 379 113.2C394.7 112.7 410.3 111.3 426.2 108C442 104.7 458 99.3 473.8 95C489.7 90.7 505.3 87.3 521 90.7C536.7 94 552.3 104 568.2 104.2C584 104.3 600 94.7 615.8 91.3C631.7 88 647.3 91 663.2 94C679 97 695 100 710.8 103.3C726.7 106.7 742.3 110.3 758 112.5C773.7 114.7 789.3 115.3 805.2 114.7C821 114 837 112 852.8 108C868.7 104 884.3 98 892.2 95L900 92L900 0L892.2 0C884.3 0 868.7 0 852.8 0C837 0 821 0 805.2 0C789.3 0 773.7 0 758 0C742.3 0 726.7 0 710.8 0C695 0 679 0 663.2 0C647.3 0 631.7 0 615.8 0C600 0 584 0 568.2 0C552.3 0 536.7 0 521 0C505.3 0 489.7 0 473.8 0C458 0 442 0 426.2 0C410.3 0 394.7 0 379 0C363.3 0 347.7 0 331.8 0C316 0 300 0 284.2 0C268.3 0 252.7 0 236.8 0C221 0 205 0 189.2 0C173.3 0 157.7 0 142 0C126.3 0 110.7 0 94.8 0C79 0 63 0 47.2 0C31.3 0 15.7 0 7.8 0L0 0Z" fill="#590039"></path><path d="M0 90L7.8 89.3C15.7 88.7 31.3 87.3 47.2 86C63 84.7 79 83.3 94.8 83.5C110.7 83.7 126.3 85.3 142 83C157.7 80.7 173.3 74.3 189.2 71C205 67.7 221 67.3 236.8 69.2C252.7 71 268.3 75 284.2 77.3C300 79.7 316 80.3 331.8 82.5C347.7 84.7 363.3 88.3 379 88.7C394.7 89 410.3 86 426.2 85C442 84 458 85 473.8 81.8C489.7 78.7 505.3 71.3 521 73C536.7 74.7 552.3 85.3 568.2 88.7C584 92 600 88 615.8 85C631.7 82 647.3 80 663.2 78.2C679 76.3 695 74.7 710.8 74C726.7 73.3 742.3 73.7 758 75.2C773.7 76.7 789.3 79.3 805.2 82.7C821 86 837 90 852.8 92.2C868.7 94.3 884.3 94.7 892.2 94.8L900 95L900 0L892.2 0C884.3 0 868.7 0 852.8 0C837 0 821 0 805.2 0C789.3 0 773.7 0 758 0C742.3 0 726.7 0 710.8 0C695 0 679 0 663.2 0C647.3 0 631.7 0 615.8 0C600 0 584 0 568.2 0C552.3 0 536.7 0 521 0C505.3 0 489.7 0 473.8 0C458 0 442 0 426.2 0C410.3 0 394.7 0 379 0C363.3 0 347.7 0 331.8 0C316 0 300 0 284.2 0C268.3 0 252.7 0 236.8 0C221 0 205 0 189.2 0C173.3 0 157.7 0 142 0C126.3 0 110.7 0 94.8 0C79 0 63 0 47.2 0C31.3 0 15.7 0 7.8 0L0 0Z" fill="#6d0035"></path><path d="M0 66L7.8 62.8C15.7 59.7 31.3 53.3 47.2 50.2C63 47 79 47 94.8 51.7C110.7 56.3 126.3 65.7 142 70.3C157.7 75 173.3 75 189.2 73.3C205 71.7 221 68.3 236.8 66.3C252.7 64.3 268.3 63.7 284.2 65C300 66.3 316 69.7 331.8 68C347.7 66.3 363.3 59.7 379 55.3C394.7 51 410.3 49 426.2 49.5C442 50 458 53 473.8 55.7C489.7 58.3 505.3 60.7 521 59.3C536.7 58 552.3 53 568.2 51C584 49 600 50 615.8 52.2C631.7 54.3 647.3 57.7 663.2 60.5C679 63.3 695 65.7 710.8 66.5C726.7 67.3 742.3 66.7 758 63.8C773.7 61 789.3 56 805.2 54.2C821 52.3 837 53.7 852.8 54.7C868.7 55.7 884.3 56.3 892.2 56.7L900 57L900 0L892.2 0C884.3 0 868.7 0 852.8 0C837 0 821 0 805.2 0C789.3 0 773.7 0 758 0C742.3 0 726.7 0 710.8 0C695 0 679 0 663.2 0C647.3 0 631.7 0 615.8 0C600 0 584 0 568.2 0C552.3 0 536.7 0 521 0C505.3 0 489.7 0 473.8 0C458 0 442 0 426.2 0C410.3 0 394.7 0 379 0C363.3 0 347.7 0 331.8 0C316 0 300 0 284.2 0C268.3 0 252.7 0 236.8 0C221 0 205 0 189.2 0C173.3 0 157.7 0 142 0C126.3 0 110.7 0 94.8 0C79 0 63 0 47.2 0C31.3 0 15.7 0 7.8 0L0 0Z" fill="#7f002e"></path><path d="M0 43L7.8 41.8C15.7 40.7 31.3 38.3 47.2 39.7C63 41 79 46 94.8 48.5C110.7 51 126.3 51 142 49.3C157.7 47.7 173.3 44.3 189.2 42.7C205 41 221 41 236.8 41.7C252.7 42.3 268.3 43.7 284.2 43.3C300 43 316 41 331.8 42.7C347.7 44.3 363.3 49.7 379 48.3C394.7 47 410.3 39 426.2 39C442 39 458 47 473.8 48.8C489.7 50.7 505.3 46.3 521 44.5C536.7 42.7 552.3 43.3 568.2 43.8C584 44.3 600 44.7 615.8 46C631.7 47.3 647.3 49.7 663.2 47.3C679 45 695 38 710.8 37.7C726.7 37.3 742.3 43.7 758 46.7C773.7 49.7 789.3 49.3 805.2 46.7C821 44 837 39 852.8 37.8C868.7 36.7 884.3 39.3 892.2 40.7L900 42L900 0L892.2 0C884.3 0 868.7 0 852.8 0C837 0 821 0 805.2 0C789.3 0 773.7 0 758 0C742.3 0 726.7 0 710.8 0C695 0 679 0 663.2 0C647.3 0 631.7 0 615.8 0C600 0 584 0 568.2 0C552.3 0 536.7 0 521 0C505.3 0 489.7 0 473.8 0C458 0 442 0 426.2 0C410.3 0 394.7 0 379 0C363.3 0 347.7 0 331.8 0C316 0 300 0 284.2 0C268.3 0 252.7 0 236.8 0C221 0 205 0 189.2 0C173.3 0 157.7 0 142 0C126.3 0 110.7 0 94.8 0C79 0 63 0 47.2 0C31.3 0 15.7 0 7.8 0L0 0Z" fill="#8e0023"></path><path d="M0 34L7.8 33.5C15.7 33 31.3 32 47.2 31C63 30 79 29 94.8 27.3C110.7 25.7 126.3 23.3 142 21.5C157.7 19.7 173.3 18.3 189.2 17.8C205 17.3 221 17.7 236.8 19C252.7 20.3 268.3 22.7 284.2 22.7C300 22.7 316 20.3 331.8 20.7C347.7 21 363.3 24 379 24C394.7 24 410.3 21 426.2 21C442 21 458 24 473.8 24C489.7 24 505.3 21 521 19.5C536.7 18 552.3 18 568.2 20C584 22 600 26 615.8 25.8C631.7 25.7 647.3 21.3 663.2 20.5C679 19.7 695 22.3 710.8 23C726.7 23.7 742.3 22.3 758 22.7C773.7 23 789.3 25 805.2 26.5C821 28 837 29 852.8 28.2C868.7 27.3 884.3 24.7 892.2 23.3L900 22L900 0L892.2 0C884.3 0 868.7 0 852.8 0C837 0 821 0 805.2 0C789.3 0 773.7 0 758 0C742.3 0 726.7 0 710.8 0C695 0 679 0 663.2 0C647.3 0 631.7 0 615.8 0C600 0 584 0 568.2 0C552.3 0 536.7 0 521 0C505.3 0 489.7 0 473.8 0C458 0 442 0 426.2 0C410.3 0 394.7 0 379 0C363.3 0 347.7 0 331.8 0C316 0 300 0 284.2 0C268.3 0 252.7 0 236.8 0C221 0 205 0 189.2 0C173.3 0 157.7 0 142 0C126.3 0 110.7 0 94.8 0C79 0 63 0 47.2 0C31.3 0 15.7 0 7.8 0L0 0Z" fill="#991414"></path></svg>