<svg id="visual" viewBox="0 0 900 200" width="900" height="200" xmlns="http://www.w3.org/2000/svg" xmlns:xlink="http://www.w3.org/1999/xlink" version="1.1"><rect x="0" y="0" width="900" height="200" fill="#001220"></rect><path d="M0 66L7.8 67C15.7 68 31.3 70 47.2 71C63 72 79 72 94.8 71.3C110.7 70.7 126.3 69.3 142 66.7C157.7 64 173.3 60 189.2 59.8C205 59.7 221 63.3 236.8 67.2C252.7 71 268.3 75 284.2 74.7C300 74.3 316 69.7 331.8 66.8C347.7 64 363.3 63 379 63.5C394.7 64 410.3 66 426.2 67C442 68 458 68 473.8 66.5C489.7 65 505.3 62 521 62.7C536.7 63.3 552.3 67.7 568.2 68.3C584 69 600 66 615.8 65.2C631.7 64.3 647.3 65.7 663.2 65.3C679 65 695 63 710.8 64.2C726.7 65.3 742.3 69.7 758 70.3C773.7 71 789.3 68 805.2 69.7C821 71.3 837 77.7 852.8 78.3C868.7 79 884.3 74 892.2 71.5L900 69L900 0L892.2 0C884.3 0 868.7 0 852.8 0C837 0 821 0 805.2 0C789.3 0 773.7 0 758 0C742.3 0 726.7 0 710.8 0C695 0 679 0 663.2 0C647.3 0 631.7 0 615.8 0C600 0 584 0 568.2 0C552.3 0 536.7 0 521 0C505.3 0 489.7 0 473.8 0C458 0 442 0 426.2 0C410.3 0 394.7 0 379 0C363.3 0 347.7 0 331.8 0C316 0 300 0 284.2 0C268.3 0 252.7 0 236.8 0C221 0 205 0 189.2 0C173.3 0 157.7 0 142 0C126.3 0 110.7 0 94.8 0C79 0 63 0 47.2 0C31.3 0 15.7 0 7.8 0L0 0Z" fill="#e4d239"></path><path d="M0 61L7.8 61.5C15.7 62 31.3 63 47.2 63.3C63 63.7 79 63.3 94.8 62C110.7 60.7 126.3 58.3 142 56.5C157.7 54.7 173.3 53.3 189.2 53.2C205 53 221 54 236.8 55.2C252.7 56.3 268.3 57.7 284.2 60C300 62.3 316 65.7 331.8 65C347.7 64.3 363.3 59.7 379 56.2C394.7 52.7 410.3 50.3 426.2 49C442 47.7 458 47.3 473.8 49.7C489.7 52 505.3 57 521 58.3C536.7 59.7 552.3 57.3 568.2 56.3C584 55.3 600 55.7 615.8 57.5C631.7 59.3 647.3 62.7 663.2 65C679 67.3 695 68.7 710.8 69.3C726.7 70 742.3 70 758 68.3C773.7 66.7 789.3 63.3 805.2 62.5C821 61.7 837 63.3 852.8 61.8C868.7 60.3 884.3 55.7 892.2 53.3L900 51L900 0L892.2 0C884.3 0 868.7 0 852.8 0C837 0 821 0 805.2 0C789.3 0 773.7 0 758 0C742.3 0 726.7 0 710.8 0C695 0 679 0 663.2 0C647.3 0 631.7 0 615.8 0C600 0 584 0 568.2 0C552.3 0 536.7 0 521 0C505.3 0 489.7 0 473.8 0C458 0 442 0 426.2 0C410.3 0 394.7 0 379 0C363.3 0 347.7 0 331.8 0C316 0 300 0 284.2 0C268.3 0 252.7 0 236.8 0C221 0 205 0 189.2 0C173.3 0 157.7 0 142 0C126.3 0 110.7 0 94.8 0C79 0 63 0 47.2 0C31.3 0 15.7 0 7.8 0L0 0Z" fill="#e1ba26"></path><path d="M0 59L7.8 57.3C15.7 55.7 31.3 52.3 47.2 51.5C63 50.7 79 52.3 94.8 50.8C110.7 49.3 126.3 44.7 142 43.2C157.7 41.7 173.3 43.3 189.2 45.7C205 48 221 51 236.8 50.5C252.7 50 268.3 46 284.2 43.3C300 40.7 316 39.3 331.8 40C347.7 40.7 363.3 43.3 379 44.2C394.7 45 410.3 44 426.2 45.8C442 47.7 458 52.3 473.8 53.3C489.7 54.3 505.3 51.7 521 48.3C536.7 45 552.3 41 568.2 42.7C584 44.3 600 51.7 615.8 52.2C631.7 52.7 647.3 46.3 663.2 45.2C679 44 695 48 710.8 51.2C726.7 54.3 742.3 56.7 758 54.3C773.7 52 789.3 45 805.2 41.8C821 38.7 837 39.3 852.8 42.5C868.7 45.7 884.3 51.3 892.2 54.2L900 57L900 0L892.2 0C884.3 0 868.7 0 852.8 0C837 0 821 0 805.2 0C789.3 0 773.7 0 758 0C742.3 0 726.7 0 710.8 0C695 0 679 0 663.2 0C647.3 0 631.7 0 615.8 0C600 0 584 0 568.2 0C552.3 0 536.7 0 521 0C505.3 0 489.7 0 473.8 0C458 0 442 0 426.2 0C410.3 0 394.7 0 379 0C363.3 0 347.7 0 331.8 0C316 0 300 0 284.2 0C268.3 0 252.7 0 236.8 0C221 0 205 0 189.2 0C173.3 0 157.7 0 142 0C126.3 0 110.7 0 94.8 0C79 0 63 0 47.2 0C31.3 0 15.7 0 7.8 0L0 0Z" fill="#dba215"></path><path d="M0 36L7.8 36.8C15.7 37.7 31.3 39.3 47.2 40.5C63 41.7 79 42.3 94.8 42.3C110.7 42.3 126.3 41.7 142 41C157.7 40.3 173.3 39.7 189.2 39C205 38.3 221 37.7 236.8 35.7C252.7 33.7 268.3 30.3 284.2 30.7C300 31 316 35 331.8 36.8C347.7 38.7 363.3 38.3 379 38.2C394.7 38 410.3 38 426.2 38C442 38 458 38 473.8 38.3C489.7 38.7 505.3 39.3 521 39.5C536.7 39.7 552.3 39.3 568.2 39.3C584 39.3 600 39.7 615.8 39.7C631.7 39.7 647.3 39.3 663.2 38.3C679 37.3 695 35.7 710.8 35.8C726.7 36 742.3 38 758 39.7C773.7 41.3 789.3 42.7 805.2 41.7C821 40.7 837 37.3 852.8 34.7C868.7 32 884.3 30 892.2 29L900 28L900 0L892.2 0C884.3 0 868.7 0 852.8 0C837 0 821 0 805.2 0C789.3 0 773.7 0 758 0C742.3 0 726.7 0 710.8 0C695 0 679 0 663.2 0C647.3 0 631.7 0 615.8 0C600 0 584 0 568.2 0C552.3 0 536.7 0 521 0C505.3 0 489.7 0 473.8 0C458 0 442 0 426.2 0C410.3 0 394.7 0 379 0C363.3 0 347.7 0 331.8 0C316 0 300 0 284.2 0C268.3 0 252.7 0 236.8 0C221 0 205 0 189.2 0C173.3 0 157.7 0 142 0C126.3 0 110.7 0 94.8 0C79 0 63 0 47.2 0C31.3 0 15.7 0 7.8 0L0 0Z" fill="#d48a08"></path><path d="M0 28L7.8 28.3C15.7 28.7 31.3 29.3 47.2 27.5C63 25.7 79 21.3 94.8 20.2C110.7 19 126.3 21 142 22.8C157.7 24.7 173.3 26.3 189.2 27.5C205 28.7 221 29.3 236.8 28.3C252.7 27.3 268.3 24.7 284.2 22.7C300 20.7 316 19.3 331.8 18.3C347.7 17.3 363.3 16.7 379 17.8C394.7 19 410.3 22 426.2 22.3C442 22.7 458 20.3 473.8 21.7C489.7 23 505.3 28 521 29.2C536.7 30.3 552.3 27.7 568.2 27.2C584 26.7 600 28.3 615.8 27.3C631.7 26.3 647.3 22.7 663.2 22.5C679 22.3 695 25.7 710.8 27C726.7 28.3 742.3 27.7 758 28.2C773.7 28.7 789.3 30.3 805.2 28.5C821 26.7 837 21.3 852.8 18.8C868.7 16.3 884.3 16.7 892.2 16.8L900 17L900 0L892.2 0C884.3 0 868.7 0 852.8 0C837 0 821 0 805.2 0C789.3 0 773.7 0 758 0C742.3 0 726.7 0 710.8 0C695 0 679 0 663.2 0C647.3 0 631.7 0 615.8 0C600 0 584 0 568.2 0C552.3 0 536.7 0 521 0C505.3 0 489.7 0 473.8 0C458 0 442 0 426.2 0C410.3 0 394.7 0 379 0C363.3 0 347.7 0 331.8 0C316 0 300 0 284.2 0C268.3 0 252.7 0 236.8 0C221 0 205 0 189.2 0C173.3 0 157.7 0 142 0C126.3 0 110.7 0 94.8 0C79 0 63 0 47.2 0C31.3 0 15.7 0 7.8 0L0 0Z" fill="#cb7204"></path><path d="M0 7L7.8 8C15.7 9 31.3 11 47.2 11.2C63 11.3 79 9.7 94.8 9.5C110.7 9.3 126.3 10.7 142 11.7C157.7 12.7 173.3 13.3 189.2 13C205 12.7 221 11.3 236.8 11.3C252.7 11.3 268.3 12.7 284.2 14.3C300 16 316 18 331.8 17C347.7 16 363.3 12 379 12C394.7 12 410.3 16 426.2 18C442 20 458 20 473.8 18C489.7 16 505.3 12 521 10.5C536.7 9 552.3 10 568.2 9.8C584 9.7 600 8.3 615.8 9.7C631.7 11 647.3 15 663.2 16.5C679 18 695 17 710.8 15C726.7 13 742.3 10 758 8.8C773.7 7.7 789.3 8.3 805.2 8.7C821 9 837 9 852.8 10.8C868.7 12.7 884.3 16.3 892.2 18.2L900 20L900 0L892.2 0C884.3 0 868.7 0 852.8 0C837 0 821 0 805.2 0C789.3 0 773.7 0 758 0C742.3 0 726.7 0 710.8 0C695 0 679 0 663.2 0C647.3 0 631.7 0 615.8 0C600 0 584 0 568.2 0C552.3 0 536.7 0 521 0C505.3 0 489.7 0 473.8 0C458 0 442 0 426.2 0C410.3 0 394.7 0 379 0C363.3 0 347.7 0 331.8 0C316 0 300 0 284.2 0C268.3 0 252.7 0 236.8 0C221 0 205 0 189.2 0C173.3 0 157.7 0 142 0C126.3 0 110.7 0 94.8 0C79 0 63 0 47.2 0C31.3 0 15.7 0 7.8 0L0 0Z" fill="#c05a06"></path></svg>