<svg id="visual" viewBox="0 0 960 540" width="960" height="540" xmlns="http://www.w3.org/2000/svg" xmlns:xlink="http://www.w3.org/1999/xlink" version="1.1"><rect width="960" height="540" fill="#001220"></rect><g><g transform="translate(329 118)"><path d="M0 -39.4L34.1 -19.7L34.1 19.7L0 39.4L-34.1 19.7L-34.1 -19.7Z" stroke="#e4d239" fill="none" stroke-width="2"></path></g><g transform="translate(683 51)"><path d="M0 -24L20.8 -12L20.8 12L0 24L-20.8 12L-20.8 -12Z" stroke="#e4d239" fill="none" stroke-width="2"></path></g><g transform="translate(385 198)"><path d="M0 -30L26 -15L26 15L0 30L-26 15L-26 -15Z" stroke="#e4d239" fill="none" stroke-width="2"></path></g><g transform="translate(820 479)"><path d="M0 -35L30.3 -17.5L30.3 17.5L0 35L-30.3 17.5L-30.3 -17.5Z" stroke="#e4d239" fill="none" stroke-width="2"></path></g><g transform="translate(803 217)"><path d="M0 -32L27.7 -16L27.7 16L0 32L-27.7 16L-27.7 -16Z" stroke="#e4d239" fill="none" stroke-width="2"></path></g><g transform="translate(173 488)"><path d="M0 -35L30.3 -17.5L30.3 17.5L0 35L-30.3 17.5L-30.3 -17.5Z" stroke="#e4d239" fill="none" stroke-width="2"></path></g></g></svg>