<svg id="visual" viewBox="0 0 800 200" width="800" height="200" xmlns="http://www.w3.org/2000/svg" xmlns:xlink="http://www.w3.org/1999/xlink" version="1.1"><rect x="0" y="0" width="800" height="200" fill="#991414"></rect><path d="M0 105L19 101.3C38 97.7 76 90.3 114.2 77.7C152.3 65 190.7 47 228.8 41.3C267 35.7 305 42.3 343 54.2C381 66 419 83 457 99.8C495 116.7 533 133.3 571.2 131.7C609.3 130 647.7 110 685.8 106C724 102 762 114 781 120L800 126L800 0L781 0C762 0 724 0 685.8 0C647.7 0 609.3 0 571.2 0C533 0 495 0 457 0C419 0 381 0 343 0C305 0 267 0 228.8 0C190.7 0 152.3 0 114.2 0C76 0 38 0 19 0L0 0Z" fill="#001220" stroke-linecap="round" stroke-linejoin="miter"></path></svg>